<?xml version="1.0" encoding="utf-8"?>
<!-- Generator: Adobe Illustrator 22.1.0, SVG Export Plug-In . SVG Version: 6.00 Build 0)  -->
<svg version="1.1" id="Capa_1" xmlns="http://www.w3.org/2000/svg" xmlns:xlink="http://www.w3.org/1999/xlink" x="0px" y="0px"
	 viewBox="0 0 512 512" style="enable-background:new 0 0 512 512;" xml:space="preserve">
<style type="text/css">
	.st0{fill:#1E9B91;}
</style>
<g>
	<g>
		<g>
			<path class="st0" d="M503.4,429.5c-9.1-6.3-21.5-4-27.8,5c-25.3,36.5-99.1,36.5-124.5,0c-3.7-5.4-9.9-8.6-16.4-8.6
				s-12.7,3.2-16.4,8.6c-25.3,36.5-99.1,36.5-124.5,0c-3.7-5.4-9.9-8.6-16.4-8.6s-12.7,3.2-16.4,8.6c-25.3,36.5-99.1,36.5-124.5,0
				c-6.3-9.1-18.8-11.3-27.8-5c-9.1,6.3-11.3,18.8-5,27.8c36.7,52.9,125.5,58.6,173.8,18c42.5,35.8,115.4,35.3,157.3,0
				c48.3,40.7,137.1,34.9,173.8-18C514.7,448.3,512.5,435.8,503.4,429.5z"/>
			<path class="st0" d="M98,316c11,0,20-9,20-20v-30h180v30c0,11,9,20,20,20s20-9,20-20V78c0-15.4,12.6-28,28-28
				c15.4,0,28,12.6,28,28c0,11,9,20,20,20s20-9,20-20c0-37.5-30.5-68-68-68s-68,30.5-68,68v58H118V78c0-15.4,12.6-28,28-28
				s28,12.6,28,28c0,11,9,20,20,20s20-9,20-20c0-37.5-30.5-68-68-68S78,40.5,78,78v218C78,307,87,316,98,316z M118,176h180l0,0v50
				H118V176z"/>
			<path class="st0" d="M177.3,385.3c20.1,17,48.1,26.6,78.7,26.6s58.5-9.7,78.7-26.6c48.3,40.7,137.1,34.9,173.8-18
				c6.3-9.1,4-21.5-5-27.8c-9.1-6.3-21.5-4-27.8,5c-25.3,36.5-99.1,36.5-124.5,0c-3.7-5.4-9.9-8.6-16.4-8.6s-12.7,3.2-16.4,8.6
				c-25.3,36.5-99.1,36.5-124.5,0c-3.7-5.4-9.9-8.6-16.4-8.6s-12.7,3.2-16.4,8.6c-25.3,36.5-99.1,36.5-124.5,0
				c-6.3-9.1-18.8-11.3-27.8-5c-9.1,6.3-11.3,18.8-5,27.8C40.3,420.3,129.1,426,177.3,385.3z"/>
		</g>
	</g>
</g>
</svg>
