<?xml version="1.0" encoding="utf-8"?>
<!-- Generator: Adobe Illustrator 22.1.0, SVG Export Plug-In . SVG Version: 6.00 Build 0)  -->
<svg version="1.1" id="Capa_1" xmlns="http://www.w3.org/2000/svg" xmlns:xlink="http://www.w3.org/1999/xlink" x="0px" y="0px"
	 viewBox="0 0 441.2 441.2" style="enable-background:new 0 0 441.2 441.2;" xml:space="preserve">
<style type="text/css">
	.st0{fill:#1E9B91;}
</style>
<path class="st0" d="M440.7,132.7c-0.9-2.4-2.7-4.2-5.1-5.2l-39.2-15.8c-2.4-12.7-12.1-22.8-24.4-26l-2.1-24.4
	c-0.3-3.6-2.7-6.6-6.1-7.8c-3.4-1.1-7.1-0.2-9.5,2.5l-10.1,11.1l-6.2-21.8c-1.1-3.8-4.4-6.4-8.3-6.5c-3.9-0.1-7.4,2.3-8.8,5.9
	L274.3,173c0,0-172.1,8-172.2,8C66.8,183.2,33.4,164.3,17,133c-2.3-4.4-7.7-6.1-12.1-3.8c-4.4,2.3-6.1,7.7-3.8,12.1
	c14.7,28,40.7,47.8,70.5,54.9c-3.1,3.6-9.8,12.6-13.6,26.6c-4.2,15.3-5.8,39.7,9.8,70.6l-25.2,34.3c-1.5,2-2.1,4.5-1.6,7L52,394.9
	c0.8,4.3,4.5,7.4,8.9,7.4h11.3c2.7,0,5.2-1.2,6.9-3.2c1.7-2,2.4-4.8,1.9-7.4l-7-38.6l74.4-55.9c0.1-0.1-0.1,0.1,0,0
	c7.1-6,12.3-12.6,16-19.3c38.8,6.8,91.8,16,125.9,21.5l15,95.3c0.7,4.4,4.5,7.6,8.9,7.6h9.3c5,0,9-4,9-9v-96.8
	c8.4-5.8,11.5-15.4,13.5-24.9c0.1-0.3,20-92.4,20-92.4c3.8,0.6,7.6,1,11.4,1c26.4,0,50.5-15.4,63-40.3
	C441.4,137.7,441.5,135.1,440.7,132.7z"/>
</svg>
