<?xml version="1.0" encoding="utf-8"?>
<!-- Generator: Adobe Illustrator 22.1.0, SVG Export Plug-In . SVG Version: 6.00 Build 0)  -->
<svg version="1.1" id="Capa_1" xmlns="http://www.w3.org/2000/svg" xmlns:xlink="http://www.w3.org/1999/xlink" x="0px" y="0px"
	 viewBox="0 0 554.6 554.6" style="enable-background:new 0 0 554.6 554.6;" xml:space="preserve">
<style type="text/css">
	.st0{fill:#1E9B91;}
</style>
<g>
	<g>
		<path class="st0" d="M533.2,437l-56.5,41.8c-3.4,2.5-10.5,2.7-14,0.4l-49.5-32.6c-12.7-8.4-32-8.5-44.8-0.2l-50.7,32.9
			c-3.9,2.5-11.8,2.6-15.7,0.1l-52.7-33.3c-13.1-8.3-32.4-7.5-44.8,1.9l-40.9,30.8c-3.4,2.6-10.4,2.8-14,0.5l-50.7-32.9
			c-13.3-8.7-32.6-7.5-44.8,2.7L4.8,490c-5.7,4.8-6.5,13.3-1.7,19c2.7,3.2,6.5,4.8,10.4,4.8c3,0,6.1-1,8.6-3.1l49.1-40.9
			c3.1-2.6,9.5-3,12.9-0.8l50.7,32.9c13.1,8.5,32.4,7.8,44.9-1.6l40.9-30.8c3.4-2.6,10.6-2.9,14.2-0.6l52.7,33.3
			c12.8,8.1,32.1,8,44.8-0.3L383,469c3.8-2.5,11.5-2.4,15.3,0.1l49.5,32.6c13,8.6,32.3,8.1,44.9-1.2l56.5-41.8
			c6-4.4,7.2-12.9,2.8-18.8C547.6,433.9,539.2,432.6,533.2,437z"/>
		<path class="st0" d="M338.5,398.1l126.9-80c8.9-5.6,15.7-18.8,14.1-29.2C459.1,154.8,316.8,64.1,196.2,41.2
			c-10.4-2-15.7,4.9-11.9,14.8l131,334.6C319.2,400.4,329.5,403.8,338.5,398.1z"/>
		<path class="st0" d="M92.2,249.5c14.5,0,26.3-11.8,26.3-26.2c0-14.5-11.8-26.3-26.3-26.3c-14.5,0-26.3,11.8-26.3,26.3
			C65.9,237.7,77.7,249.5,92.2,249.5z"/>
		<path class="st0" d="M76.9,291.7l27.8,63.5c4.3,9.4,14,16.1,25,16.1H205l43.3,41.6c7,6.5,17.9,6,24.4-0.9c6.5-7,6.1-17.9-0.8-24.5
			L222,340.2c-3-2.7-6.6-4.4-11.6-4.4h-50.9l-23-51.1H164c0,0,5.8-0.3,8.8-2.7l45.6-20.5c3.3-2.4,5.6-6.4,5.6-10.8
			c0-7.1-5.9-13.1-13.1-13.1c-1.8,0-3.5,0.4-4.2,0.8l-42,19l-73.9,0.2c-15.8,0-25.4,7.7-21.3,17.1C73.6,284.1,76.9,291.7,76.9,291.7
			z"/>
	</g>
</g>
</svg>
