<?xml version="1.0" encoding="utf-8"?>
<!-- Generator: Adobe Illustrator 22.1.0, SVG Export Plug-In . SVG Version: 6.00 Build 0)  -->
<svg version="1.1" id="Capa_1" xmlns="http://www.w3.org/2000/svg" xmlns:xlink="http://www.w3.org/1999/xlink" x="0px" y="0px"
	 viewBox="0 0 45.4 45.4" style="enable-background:new 0 0 45.4 45.4;" xml:space="preserve">
<style type="text/css">
	.st0{fill:#1E9B91;}
</style>
<g>
	<path class="st0" d="M41.4,11.1c-0.4-3.6-1-6.5-1.9-7.6C35.7-1,8.6-1.3,5.6,3.5c-0.8,1.2-1.3,4-1.6,7.6c-1.1,0.1-2,1.1-2,2.3v4.4
		c0,1,0.6,1.8,1.5,2.1c-0.2,7,0,14.3,0.3,17.9c0,2.8,1.9,2.3,1.9,2.3h1.8v3c0,1.2,1.2,2.2,2.8,2.2c1.5,0,2.8-1,2.8-2.2v-3h20.5v3
		c0,1.2,1.2,2.2,2.8,2.2c1.5,0,2.8-1,2.8-2.2v-3h0.6c0,0,2.2,0.3,2.4-1c0-3.6,0.2-11.6,0-19.2c0.9-0.3,1.6-1.1,1.6-2.2v-4.4
		C43.5,12.2,42.6,11.2,41.4,11.1z M12.2,4.2h20.7v3.1H12.2V4.2z M12.5,36.7c-1.6,0-2.9-1.3-2.9-2.9c0-1.6,1.3-2.9,2.9-2.9
		s2.9,1.3,2.9,2.9C15.4,35.3,14.1,36.7,12.5,36.7z M32.8,36.7c-1.6,0-2.9-1.3-2.9-2.9c0-1.6,1.3-2.9,2.9-2.9c1.6,0,2.9,1.3,2.9,2.9
		C35.7,35.3,34.4,36.7,32.8,36.7z M36.5,23.8h-28V9.1h28V23.8z"/>
</g>
</svg>
