<?xml version="1.0" encoding="utf-8"?>
<!-- Generator: Adobe Illustrator 22.1.0, SVG Export Plug-In . SVG Version: 6.00 Build 0)  -->
<svg version="1.1" id="Capa_1" xmlns="http://www.w3.org/2000/svg" xmlns:xlink="http://www.w3.org/1999/xlink" x="0px" y="0px"
	 viewBox="0 0 24.4 24.4" style="enable-background:new 0 0 24.4 24.4;" xml:space="preserve">
<style type="text/css">
	.st0{fill:#1E9B91;}
</style>
<g>
	<g>
		<path class="st0" d="M6.4,9.3c1.8,0,3.2-1.4,3.2-3.2C9.6,5,10,4,9.2,3.4C8.6,3.1,6.4,2.9,5.7,2.9C4.9,2.9,3.9,3.5,3.4,4
			C2.7,4.6,3.2,5.1,3.2,6.1C3.2,7.9,4.6,9.3,6.4,9.3z M4.2,5.8c0.6-0.1,1,0.1,1,0.1l1-0.5c0,0-0.5,0.7-0.1,0.5
			c1-0.3,2.1-0.2,2.7-0.1c0,0.1,0,0.3,0,0.4c0,1.3-1,2.4-2.3,2.4c-1.3,0-2.3-1.1-2.3-2.4C4.1,6,4.2,5.9,4.2,5.8z"/>
		<path class="st0" d="M22.1,5.6c0-0.2,0-0.4-0.1-0.5c-0.1-1.1-1.1-3.4-4-3.3c-2.5,0.1-3,1.9-3.2,3.1c-0.1,0.3-0.1,0.6-0.2,0.9
			c-3.2,0.6-2.9,3.8-0.9,3.9c-0.2-1.7,0.6-2.7,0.9-3.1c0.3,1.8,1.8,3.1,3.7,3.1c1.8,0,3.2-1.2,3.6-2.9c0.3,0.5,0.8,1.6,0.7,2.8
			C25.8,9.6,24.3,6,22.1,5.6z M18.4,8.6c-1.5,0-2.6-1.2-2.7-2.6c0.5-0.2,0.9-1.1,0.9-1.1S16.9,5,16.9,6c0.6,0.2,1.5-1.6,1.5-1.6v1.4
			C19,6,21,5.8,21,5.8L21,5.8c0,0,0,0.1,0,0.1C21,7.4,19.8,8.6,18.4,8.6z"/>
		<polygon class="st0" points="19.1,9.8 17.6,9.8 16.3,9.8 12.4,14.4 8.7,9.8 4.4,9.8 0,14.7 0.9,15.7 4.1,12.9 4.1,18.2 4.7,18.2 
			4.7,22.2 4.3,22.2 4.3,22.7 6.2,22.7 6.2,22.2 6.2,18.2 6.9,18.2 6.9,22.2 6.9,22.7 8.7,22.7 8.7,22.2 8.3,22.2 8.3,18.2 
			9.1,18.2 9.1,13 11.6,15.7 12.7,15.4 13.2,15.5 16.1,12.2 16.3,13.6 13.6,18.1 16.7,18.1 16.7,22.1 16.3,22.1 16.3,22.6 
			18.1,22.6 18.1,22.1 18.1,22.1 18.1,18.1 18.8,18.1 18.8,22.1 18.8,22.6 20.7,22.6 20.7,22.1 20.3,22.1 20.3,18.1 22.6,18.1 
			20.3,13.6 20.4,11.9 22.7,15 24.2,14.6 20.6,9.8 		"/>
	</g>
</g>
</svg>
