<?xml version="1.0" encoding="utf-8"?>
<!-- Generator: Adobe Illustrator 22.1.0, SVG Export Plug-In . SVG Version: 6.00 Build 0)  -->
<svg version="1.1" id="Capa_1" xmlns="http://www.w3.org/2000/svg" xmlns:xlink="http://www.w3.org/1999/xlink" x="0px" y="0px"
	 viewBox="0 0 612 612" style="enable-background:new 0 0 612 612;" xml:space="preserve">
<style type="text/css">
	.st0{fill:#1E9B91;}
</style>
<g>
	<g>
		<path class="st0" d="M588.6,113.2L213.8,33.9c-15.9-3.4-31.6,6.9-34.9,22.7l-7.1,45.8l432.5,91.5l7.1-45.8
			C614.7,132.3,604.5,116.5,588.6,113.2z"/>
		<path class="st0" d="M431,203.6c-4.4-15.8-20.9-25.1-36.6-20.7l-71.2,19.8l-167.7-35.5L137,254.3l-115.3,32
			C6,290.7-3.3,307.1,1.1,322.9L66,557c4.4,15.8,20.9,25.1,36.6,20.7l372.6-103.4c15.8-4.4,25.1-20.8,20.7-36.6l-11.1-40.2l41.8,8.8
			c15.9,3.4,31.6-6.9,34.9-22.7L588,258.7l-150.5-31.9L431,203.6z M474,322.6l9.2-43.6c1.4-6.5,7.9-10.7,14.4-9.4l43.6,9.2
			c6.5,1.4,10.7,7.8,9.4,14.4l-9.2,43.6c-1.4,6.5-7.8,10.7-14.4,9.4l-43.6-9.2C476.9,335.5,472.7,329.1,474,322.6z M28.3,309.6
			L131.4,281l243.3-67.5l26.2-7.3c0.5-0.1,1-0.2,1.4-0.2c2.1,0,4.6,1.4,5.3,4l3.1,11.1l9.6,34.7L37.1,362.2l-12.7-45.8
			C23.6,313.5,25.4,310.4,28.3,309.6z M472.6,444.1c0.5,1.8,0,3.2-0.5,4.2c-0.5,0.9-1.5,2.1-3.3,2.6L96.2,554.3
			c-0.5,0.1-1,0.2-1.4,0.2c-2.1,0-4.6-1.4-5.3-4L51.5,414l383.2-106.3l23.4,84.2L472.6,444.1z"/>
		<path class="st0" d="M156.4,453.5c-1.8-6.4-8.5-10.2-14.9-8.4l-43.5,12.1c-6.4,1.8-10.2,8.5-8.4,14.9l12.1,43.5
			c1.8,6.4,8.5,10.2,14.9,8.4l43.5-12.1c6.4-1.8,10.2-8.5,8.4-14.9L156.4,453.5z"/>
	</g>
</g>
</svg>
