<?xml version="1.0" encoding="utf-8"?>
<!-- Generator: Adobe Illustrator 22.1.0, SVG Export Plug-In . SVG Version: 6.00 Build 0)  -->
<svg version="1.1" id="Capa_1" xmlns="http://www.w3.org/2000/svg" xmlns:xlink="http://www.w3.org/1999/xlink" x="0px" y="0px"
	 viewBox="0 0 20.4 20.4" style="enable-background:new 0 0 20.4 20.4;" xml:space="preserve">
<style type="text/css">
	.st0{fill:#1E9B91;}
</style>
<g>
	<g>
		<path class="st0" d="M19,18.3l-3.8-4.2l0,0l0,0l-0.9-1c-0.1-0.1-0.2-0.2-0.3-0.2c-0.5-0.8-1-2-1-3.8c0.1-0.5,0.2-1.1,0.2-1.7
			c0-0.3-0.1-0.6-0.2-1c-0.2,0.1-0.4,0.2-0.7,0.3C12.6,8.4,12.2,10,11,11c-2,1.6-5.4,0.8-7.5-1.8S1.2,3.1,3.3,1.5
			c1.6-1.3,4-1.1,6,0.3c0.1-0.1,0.1-0.1,0.2-0.2c0.1-0.1,0.2-0.2,0.3-0.2C8.9,0.8,8.2,0.5,8.2,0.5S6.9,0,5.9,0
			C4.7,0,3.7,0.4,2.8,1.1C0.5,3,0.6,6.9,3,9.8c1.3,1.6,3.2,2.6,5,2.7l0,0c0,0,2.3,0.1,4.4,2.1c0,0.1,0.1,0.1,0.1,0.1l4.7,5.3
			c0.5,0.5,1.2,0.6,1.8,0.1C19.4,19.6,19.4,18.9,19,18.3z M12.6,13c-0.2,0.2-0.4,0.5-0.4,0.8c-0.9-0.7-1.8-1.2-2.6-1.4
			c0.7-0.2,1.4-0.5,1.9-0.9c0.4-0.4,0.8-0.8,1.1-1.3c0.1,1.1,0.4,1.9,0.8,2.6C13.1,12.7,12.8,12.8,12.6,13z"/>
		<path class="st0" d="M8.9,3.7c0.6,0.1,1.2,0.4,1.7,0.9c0.5,0.5,0.8,1.1,0.9,1.7c0.5,0,1.1-0.3,1.5-0.7c0.4-0.4,0.6-0.9,0.7-1.5
			c-0.6-0.1-1.2-0.4-1.7-0.9c-0.5-0.5-0.8-1.1-0.9-1.7c-0.5,0-1.1,0.3-1.5,0.7C9.2,2.7,9,3.2,8.9,3.7z"/>
		<path class="st0" d="M13.7,3.9c0-0.6-0.3-1.2-0.7-1.6c-0.4-0.4-1-0.7-1.6-0.7c0.1,0.5,0.3,1.1,0.8,1.5C12.6,3.5,13.2,3.8,13.7,3.9
			z"/>
		<path class="st0" d="M8.9,4c0,0.6,0.3,1.2,0.7,1.6c0.4,0.4,1,0.7,1.6,0.7c-0.1-0.5-0.3-1.1-0.8-1.5C10,4.4,9.4,4.1,8.9,4z"/>
	</g>
</g>
</svg>
