<?xml version="1.0" encoding="utf-8"?>
<!-- Generator: Adobe Illustrator 22.1.0, SVG Export Plug-In . SVG Version: 6.00 Build 0)  -->
<svg version="1.1" id="Capa_1" xmlns="http://www.w3.org/2000/svg" xmlns:xlink="http://www.w3.org/1999/xlink" x="0px" y="0px"
	 viewBox="0 0 541.9 541.9" style="enable-background:new 0 0 541.9 541.9;" xml:space="preserve">
<style type="text/css">
	.st0{fill:#1E9B91;}
</style>
<g>
	<g>
		<path class="st0" d="M260.5,523.4c15.2,0,281.3-10.5,281.3-54.9S399.5,446,399.6,408.1c-0.1-14,57.7-9.4,42.2-36.5
			c-13.6-22.6-200-19.9-200-19.9s-39.2,0.2-85.9,6V196.8C209.6,170.4,351.4,88.2,281,93.2c-59.9,4.2-102.4-16.6-125.1-32V32.9
			c0-7.9-6.4-14.3-14.3-14.3s-14.3,6.4-14.3,14.3v329C64.7,372.4,0,394,0,438.1C0,523.4,245.4,523.4,260.5,523.4z M127.2,400.5v14.8
			c0,7.9,6.4,14.3,14.3,14.3s14.3-6.4,14.3-14.3v-15.4c25.5,2.2,44.6,11.5,44.6,22.6c0,12.8-25.1,23.1-56.2,23.1
			s-56.2-10.3-56.2-23.1C88.2,412.2,104.6,403.5,127.2,400.5z"/>
	</g>
</g>
</svg>
