<?xml version="1.0" encoding="utf-8"?>
<!-- Generator: Adobe Illustrator 22.1.0, SVG Export Plug-In . SVG Version: 6.00 Build 0)  -->
<svg version="1.1" id="Capa_1" xmlns="http://www.w3.org/2000/svg" xmlns:xlink="http://www.w3.org/1999/xlink" x="0px" y="0px"
	 viewBox="0 0 45.8 45.8" style="enable-background:new 0 0 45.8 45.8;" xml:space="preserve">
<style type="text/css">
	.st0{fill:#1E9B91;}
</style>
<g>
	<g>
		<path class="st0" d="M29.7,19.6c-0.5-0.5-1-0.9-1.5-1.3c-1.3,0.5-2.5,1.3-3.4,2.3c1.1,0.5,2.2,1.2,3.1,2.1c4,4,4,10.4,0,14.4
			c-4,4-10.4,4-14.4,0c-4-4-4-10.4,0-14.4c1.1-1.1,2.4-1.9,3.8-2.4c0.1-0.2,0.2-0.4,0.2-0.6c0.6-1.5,1.5-2.9,2.6-4.2
			c-2.9,0-5.8,0.9-8.2,2.6l-0.4-6.1c0-0.2-0.1-0.4-0.3-0.5L9.1,9.6C8.8,9.3,8.3,9.3,8,9.6l-7.7,7.7c-0.3,0.3-0.4,0.8,0,1.2l2.1,2.1
			c0.1,0.1,0.3,0.2,0.5,0.3l6.1,0.4C5,26.6,5.4,34.2,10.3,39c5.4,5.4,14,5.4,19.4,0C35,33.7,35,25,29.7,19.6z M2.9,18.8L2,17.9
			l6.5-6.5l0.9,0.9L2.9,18.8z M10.3,19.6l-5.5-0.4l5.1-5.1L10.3,19.6C10.3,19.6,10.3,19.6,10.3,19.6z"/>
		<path class="st0" d="M44.6,10.8L45.7,8c0.2-0.4,0-0.9-0.4-1.1L35.2,2.8c-0.4-0.2-0.9,0-1.1,0.4L33,5.9c-0.1,0.2-0.1,0.4,0,0.6
			l1.9,5.8c-6.5-1.6-13.3,1.7-15.9,8c-2.7,6.5,0,13.9,6,17.2c0.7-0.4,1.3-0.9,1.9-1.5c0.1-0.1,0.2-0.2,0.3-0.3
			c-5-2.2-7.4-8.1-5.3-13.2c2.2-5.2,8.1-7.6,13.3-5.5c5.2,2.2,7.6,8.1,5.5,13.3c-1.3,3.2-4,5.3-7.1,6c-0.5,1-1.2,2-2,2.9
			c5.4,0,10.6-3.1,12.8-8.4c2.6-6.3,0.2-13.5-5.5-17l5.4-2.7C44.3,11.1,44.5,10.9,44.6,10.8z M36.9,13C36.9,13,36.9,13,36.9,13
			l-1.7-5.2l6.7,2.8L36.9,13z M43.3,9.4l-8.5-3.6l0.5-1.2l8.5,3.5L43.3,9.4z"/>
	</g>
</g>
</svg>
