<?xml version="1.0" encoding="utf-8"?>
<!-- Generator: Adobe Illustrator 22.1.0, SVG Export Plug-In . SVG Version: 6.00 Build 0)  -->
<svg version="1.1" id="Capa_1" xmlns="http://www.w3.org/2000/svg" xmlns:xlink="http://www.w3.org/1999/xlink" x="0px" y="0px"
	 viewBox="0 0 545.1 545.1" style="enable-background:new 0 0 545.1 545.1;" xml:space="preserve">
<style type="text/css">
	.st0{fill:#1E9B91;}
</style>
<g>
	<path class="st0" d="M487.7,105.2c10.2,0,19.6,3.2,27.3,8.7l-17.6-79.3C493.3,13.2,478,0,457.5,0H95.9C77.6,0,61.7,14.2,57.3,34.5
		l-16.4,73.8c5.2-1.9,10.7-3.1,16.5-3.1L487.7,105.2L487.7,105.2z M431.5,25.1c15.2,0,27.5,12.3,27.5,27.5s-12.3,27.5-27.5,27.5
		S404,67.8,404,52.6S416.3,25.1,431.5,25.1z M345.4,25.1c15.2,0,27.5,12.3,27.5,27.5s-12.3,27.5-27.5,27.5S318,67.8,318,52.6
		S330.3,25.1,345.4,25.1z M239.1,28.7h47.8v19.1h-47.8V28.7z M239.1,66.9h47.8v19.1h-47.8V66.9z"/>
	<path class="st0" d="M57.4,545.1h430.3c15.8,0,28.7-12.9,28.7-28.7V153c0-3.8-0.8-7.4-2.1-10.8c-0.4-0.9-0.8-1.7-1.3-2.5
		c-1.1-2.1-2.4-4-3.9-5.7c-0.9-1-1.8-1.9-2.8-2.7c-0.3,2.1-0.7,4.3-1.2,6.3c-1.1,4.4-2.6,8.6-4.6,12.5c-0.4,0.9-0.9,1.7-1.4,2.6
		c-6.6,11.3-17.4,19.4-31.9,19.4h-370c-12.4,0-25-6.5-34.3-16c-0.7-0.7-1.3-1.4-2-2.2c-4-4.5-7.3-9.7-9.5-15.1
		c-1.8-4.2-2.9-8.5-3.3-12.9c-2.3,0.8-4.5,1.8-6.5,3.1c-1.7,1.2-3.3,2.5-4.7,4c-0.8,0.8-1.5,1.8-2.2,2.7c-3.6,4.8-5.9,10.7-5.9,17.2
		v363.4C28.7,532.2,41.6,545.1,57.4,545.1z M274.1,212.8c81.7,0,148.2,66.5,148.2,148.2s-66.5,148.2-148.2,148.2
		c-81.7,0-148.2-66.5-148.2-148.2S192.4,212.8,274.1,212.8z"/>
	<path class="st0" d="M97.1,153h366.7h3.3c1.8,0,3.5-0.3,5-0.8c10.2-3.4,15.1-17.1,15.5-27.9H67.1C68.2,138,83.5,153,97.1,153z"/>
	<path class="st0" d="M274.1,480.5c65.9,0,119.5-53.6,119.5-119.5S340,241.5,274.1,241.5c-65.9,0-119.5,53.6-119.5,119.5
		S208.2,480.5,274.1,480.5z M331.9,297.8c8,0,14.5,6.5,14.5,14.5c0,8-6.5,14.5-14.5,14.5c-8,0-14.5-6.5-14.5-14.5
		C317.4,304.3,323.9,297.8,331.9,297.8z M284.1,269.1c8,0,14.5,6.5,14.5,14.5c0,8-6.5,14.5-14.5,14.5c-8,0-14.5-6.5-14.5-14.5
		C269.5,275.7,276,269.1,284.1,269.1z M186.2,347.3c10-7.4,28.8-18.2,53.5-18c18.1,0.2,27.1,6.6,36.1,13.3c-0.1-0.8-0.3-1.7-0.3-2.5
		c0-10.5,8.5-19,19-19c10.5,0,19,8.5,19,19c0,7-3.8,13.1-9.5,16.4c3.8,0.7,8,1.2,12.8,1.3c25.7,0.4,37.3-12.7,42.4-22.9
		c2.5,8.2,3.9,17,3.9,26c0,49.2-39.9,89.1-89.1,89.1c-49.2,0-89.1-39.9-89.1-89.1C185,356.3,185.5,351.8,186.2,347.3z"/>
</g>
</svg>
