<?xml version="1.0" encoding="utf-8"?>
<!-- Generator: Adobe Illustrator 22.1.0, SVG Export Plug-In . SVG Version: 6.00 Build 0)  -->
<svg version="1.1" id="Capa_1" xmlns="http://www.w3.org/2000/svg" xmlns:xlink="http://www.w3.org/1999/xlink" x="0px" y="0px"
	 viewBox="0 0 333.3 333.3" style="enable-background:new 0 0 333.3 333.3;" xml:space="preserve">
<style type="text/css">
	.st0{fill:#1E9B91;}
</style>
<path class="st0" d="M315.8,224.6l-5.6-20.8l-39.7,10.6L237,194.9l41.8-18.4v-19.8L237,138.4l33.6-19.4l39.7,10.6l5.6-20.8l-18.9-5
	l19.4-11.2l-10.8-18.6l-19.3,11.2l5-18.9l-20.8-5.6l-10.6,39.7l-33.5,19.3l4.9-45.1l-17.1-9.9l-36.8,26.9V52.8l29-29L191.2,8.5
	l-13.8,13.8V0h-21.5v22.3L142.1,8.5l-15.2,15.3l29,29v38.7l-36.8-26.9l-17.1,9.9l4.9,45.1l-33.5-19.3L62.9,60.6l-20.8,5.6l5,18.9
	L27.8,73.9L17,92.5l19.3,11.2l-18.9,5l5.6,20.8L62.7,119l33.6,19.4l-41.8,18.4v19.8l41.8,18.4l-33.6,19.4L23,203.8l-5.6,20.8l18.9,5
	L17,240.8l10.8,18.7l19.3-11.2l-5,18.8l20.8,5.6L73.5,233l33.5-19.3l-4.9,45.2l17.1,9.9l36.8-26.9v38.7l-29,29l15.2,15.3l13.8-13.8
	v22.4h21.5V311l13.8,13.8l15.2-15.3l-29-29v-38.7l36.8,26.9l17.1-9.9l-4.9-45.1l33.5,19.3l10.6,39.7l20.8-5.6l-5-18.8l19.3,11.2
	l10.8-18.7l-19.4-11.2L315.8,224.6z M247.7,166.7l-33.8,14.9l-25.8-14.9l25.7-14.9L247.7,166.7z M207.1,96.5l-4,36.6L177.4,148
	v-29.7L207.1,96.5z M126.1,96.5l29.7,21.8V148L130.1,133L126.1,96.5z M85.6,166.7l33.8-14.9l25.7,14.9l-25.8,14.9L85.6,166.7z
	 M126.1,236.8l4-36.6l25.8-14.9v29.7L126.1,236.8z M207.1,236.8l-29.7-21.8v-29.7l25.8,14.9L207.1,236.8z"/>
</svg>
