<?xml version="1.0" encoding="utf-8"?>
<!-- Generator: Adobe Illustrator 22.1.0, SVG Export Plug-In . SVG Version: 6.00 Build 0)  -->
<svg version="1.1" id="Capa_1" xmlns="http://www.w3.org/2000/svg" xmlns:xlink="http://www.w3.org/1999/xlink" x="0px" y="0px"
	 viewBox="0 0 373 373" style="enable-background:new 0 0 373 373;" xml:space="preserve">
<style type="text/css">
	.st0{fill:#FFFFFF;}
</style>
<g>
	<g>
		<path class="st0" d="M186.5,0C83.5,0,0,83.5,0,186.5S83.5,373,186.5,373S373,289.5,373,186.5C372.8,83.5,289.4,0.1,186.5,0z
			 M194.5,356.6v-32.8c0-4.4-3.6-8-8-8s-8,3.6-8,8v32.8c-87.7-4.2-157.9-74.4-162.1-162.1h32.8c4.4,0,8-3.6,8-8s-3.6-8-8-8H16.4
			C20.6,90.8,90.8,20.6,178.5,16.4v32.8c0,4.4,3.6,8,8,8s8-3.6,8-8V16.4c87.7,4.2,157.9,74.4,162.1,162.1h-32.8c-4.4,0-8,3.6-8,8
			s3.6,8,8,8h0.1h32.8C352.4,282.2,282.2,352.4,194.5,356.6z"/>
	</g>
</g>
<g>
	<g>
		<path class="st0" d="M270.9,260.9l-76.4-77.7v-80.7c0-4.4-3.6-8-8-8s-8,3.6-8,8v84c0,2.1,0.8,4.1,2.3,5.6l78.6,80
			c3.1,3.2,8.2,3.2,11.3,0.1S274,264,270.9,260.9z"/>
	</g>
</g>
</svg>
