<?xml version="1.0" encoding="utf-8"?>
<!-- Generator: Adobe Illustrator 22.1.0, SVG Export Plug-In . SVG Version: 6.00 Build 0)  -->
<svg version="1.1" id="Layer_1" xmlns="http://www.w3.org/2000/svg" xmlns:xlink="http://www.w3.org/1999/xlink" x="0px" y="0px"
	 viewBox="0 0 512 512" style="enable-background:new 0 0 512 512;" xml:space="preserve">
<style type="text/css">
	.st0{fill:#FFFFFF;}
</style>
<g>
	<g>
		<path class="st0" d="M489.4,112.9h-67.8v22.6v22.6v137.5c0,37.4-30.4,67.8-67.8,67.8H213.6l-21.5,15.1l-32.3,22.6l-19.6,13.7
			c4.1,5.4,10.6,8.9,17.9,8.9h154.5l109.6,76.7c3.9,2.7,8.4,4.1,13,4.1c3.6,0,7.1-0.8,10.4-2.6c7.5-3.9,12.2-11.6,12.2-20v-58.2
			h31.6c12.5,0,22.6-10.1,22.6-22.6V135.5C512,123.1,501.9,112.9,489.4,112.9z"/>
	</g>
</g>
<g>
	<g>
		<path class="st0" d="M353.9,7.5H22.6C10.1,7.5,0,17.6,0,30.1v265.5c0,12.5,10.1,22.6,22.6,22.6h31.6v58.2c0,8.4,4.7,16.1,12.2,20
			c3.3,1.7,6.9,2.6,10.4,2.6c4.6,0,9.1-1.4,13-4.1l45.8-32l22.6-15.8l22.6-15.8l18.7-13.1h154.5c12.5,0,22.6-10.1,22.6-22.6V158.1
			v-22.6v-22.6V30.1C376.5,17.6,366.4,7.5,353.9,7.5z M263.5,233.4h-13.8H112.9c-12.5,0-22.6-10.1-22.6-22.6
			c0-12.5,10.1-22.6,22.6-22.6h150.6c9,0,16.8,5.3,20.4,13c1.4,2.9,2.2,6.1,2.2,9.6C286.1,223.3,276,233.4,263.5,233.4z
			 M263.5,143.1H112.9c-12.5,0-22.6-10.1-22.6-22.6c0-12.5,10.1-22.6,22.6-22.6h150.6c12.5,0,22.6,10.1,22.6,22.6
			C286.1,132.9,276,143.1,263.5,143.1z"/>
	</g>
</g>
</svg>
