<?xml version="1.0" encoding="utf-8"?>
<!-- Generator: Adobe Illustrator 22.1.0, SVG Export Plug-In . SVG Version: 6.00 Build 0)  -->
<svg version="1.1" id="Capa_1" xmlns="http://www.w3.org/2000/svg" xmlns:xlink="http://www.w3.org/1999/xlink" x="0px" y="0px"
	 viewBox="0 0 512 512" style="enable-background:new 0 0 512 512;" xml:space="preserve">
<style type="text/css">
	.st0{fill:#FFFFFF;}
</style>
<path class="st0" d="M256,0C114.6,0,0,114.6,0,256s114.6,256,256,256s256-114.6,256-256S397.4,0,256,0z M256,472
	c-119.3,0-216-96.7-216-216S136.7,40,256,40s216,96.7,216,216S375.3,472,256,472z"/>
<g>
	<path class="st0" d="M310,142H202c-36.7,0-66.5,29.8-66.5,66.5v108c0,36.7,29.8,66.5,66.5,66.5h108c36.7,0,66.5-29.8,66.5-66.5
		v-108C376.5,171.8,346.7,142,310,142z M355.1,316.5c0,24.9-20.2,45.1-45.1,45.1H202c-24.9,0-45.1-20.2-45.1-45.1v-108
		c0-24.9,20.2-45.1,45.1-45.1h108c24.9,0,45.1,20.2,45.1,45.1L355.1,316.5L355.1,316.5z"/>
	<path class="st0" d="M256,200.4c-34.3,0-62.1,27.9-62.1,62.1c0,34.2,27.9,62.1,62.1,62.1s62.1-27.9,62.1-62.1
		C318.1,228.3,290.3,200.4,256,200.4z M256,303.3c-22.5,0-40.7-18.3-40.7-40.7c0-22.5,18.3-40.7,40.7-40.7
		c22.5,0,40.7,18.3,40.7,40.7C296.7,285,278.5,303.3,256,303.3z"/>
	<path class="st0" d="M320.7,182.3c-4.1,0-8.2,1.7-11.1,4.6c-2.9,2.9-4.6,7-4.6,11.1c0,4.1,1.7,8.2,4.6,11.1c2.9,2.9,7,4.6,11.1,4.6
		c4.1,0,8.2-1.7,11.1-4.6c2.9-2.9,4.6-7,4.6-11.1c0-4.1-1.7-8.2-4.6-11.1C328.9,184,324.9,182.3,320.7,182.3z"/>
</g>
</svg>
