<?xml version="1.0" encoding="utf-8"?>
<!-- Generator: Adobe Illustrator 22.1.0, SVG Export Plug-In . SVG Version: 6.00 Build 0)  -->
<svg version="1.1" xmlns="http://www.w3.org/2000/svg" xmlns:xlink="http://www.w3.org/1999/xlink" x="0px" y="0px"
	 viewBox="0 0 1000 736" style="enable-background:new 0 0 1000 736;" xml:space="preserve">
<style type="text/css">
	.st0{fill:url(#SVGID_1_);}
</style>
<g id="Vrstva_1">
</g>
<g id="Vrstva_2">
	<linearGradient id="SVGID_1_" gradientUnits="userSpaceOnUse" x1="8" y1="364.6798" x2="992.702" y2="364.6798">
		<stop  offset="0" style="stop-color:#2BB29E"/>
		<stop  offset="1" style="stop-color:#0A6054"/>
	</linearGradient>
	<path class="st0" d="M757.3,12c-56.1,1.1-107.7,21.8-147,56.2c-8.9,7.8-18.4,15.3-24.6,25.4c-11.5,18.7-6.3,37.7,4.1,46.3
		c0,0,0,0,0.1,0.1c3.6,4.7,17.2,6.8,24.2-0.1c5.2-5.2,6.9-13.8,23.5-31.1c18.2-18.9,49.1,10.4,45.7,31.1
		c-3.4,20.5,23.5,38,56.4,22.5s106.2,17.3,125.2,69.2c19,51.9,6.9,77.8-3.5,103.7c0,0-1.9,5.6-1.7,3.5c1.7-3.5,1.1-18.9-0.2-32.9
		c-5-55.3-51.8-96.9-107-93.1c-15.2,1.1-29.4,5.5-41.8,12.4c-4.8,2.1-9.6,4.6-12.6,7.2c-0.4,0.3-0.9,0.9-3.2,6.1
		c-4.9,10.8,3,23,15,29.4c5.9,3.1,12.9,3,18.8,0.1c11.1-5.6,23.8-8.5,37.2-7.8c38,1.9,68.8,33,70.4,71c0.9,19.9-6,35.3-18.1,51.9
		c-0.2,0.3-0.4,0.6-0.7,1c-9.7,11.8-17.4,18.2-26,25.6c-7.9,6.9-13.1,10.4-21.8,15.2c-2.1,1.2-4.2,2.5-6.5,3.3
		c-70.7,24.6-157.7,21.2-157.7,21.2v18.2c-0.6-57.2,2.4-101.7,9.7-151.3c10.4-70.9,31.1-119.3,31.1-119.3s-74.4-17.3-145.2,34.6
		C430,283.5,367.8,418.3,367.8,418.3l-19,39.8c0,0-149.3,22.2-204,36.3C84.2,510,28.9,548,13.3,601.6
		c-13.6,46.9-3.5,89.9,58.8,100.3c62.2,10.4,121.4-20.8,176.4-67.4c57.1-48.4,121-150.4,121-150.4l76.1-5.2l19-1.7
		c0,0-1.7,36.3,1.7,107.2c3.5,71.3,15.6,89.9,43.2,119.3c27.7,29.4,108.9,6.9,136.6-24.2c0,0-32.9-27.7-38-129.7
		c-1.4-26.7-2.2-50.6-2.6-72.6c2.8,0.2,48.8,2.6,122.8-1.4c2.7,0,5.6-0.1,8.5-0.3c18.3-1,41.3,0,67.9-5.7
		C912,449.6,993,355.3,992.7,242.1C992.3,114.4,884.9,9.6,757.3,12z M271,563.6c-48.4,46.7-147,105.5-183.3,38
		c0,0-25.9-45,60.5-74.4c86.5-29.4,185-39.8,185-39.8S319.4,516.9,271,563.6z M487.1,352.6c-6.2,21.9-20.7,96.8-20.7,96.8l-86.5,6.9
		c0,0,60.5-126.2,96.8-169.5c25.2-30,43.2-38,43.2-38S497.5,316.3,487.1,352.6z"/>
</g>
</svg>
