<?xml version="1.0" encoding="utf-8"?>
<!-- Generator: Adobe Illustrator 22.1.0, SVG Export Plug-In . SVG Version: 6.00 Build 0)  -->
<svg version="1.1" id="Capa_1" xmlns="http://www.w3.org/2000/svg" xmlns:xlink="http://www.w3.org/1999/xlink" x="0px" y="0px"
	 viewBox="0 0 485.2 485.2" style="enable-background:new 0 0 485.2 485.2;" xml:space="preserve">
<style type="text/css">
	.st0{fill:#BCBCBC;}
</style>
<g>
	<g>
		<path class="st0" d="M303.3,363.9c100.5,0,182-81.5,182-182c0-100.5-81.5-182-182-182s-182,81.5-182,182
			C121.3,282.4,202.8,363.9,303.3,363.9z M166.8,182c0-75.3,61.2-136.5,136.5-136.5S439.7,106.7,439.7,182
			c0,75.3-61.2,136.5-136.5,136.5S166.8,257.2,166.8,182z"/>
		<path class="st0" d="M77.6,471.9L189,360.6c-25.8-16.6-47.7-38.5-64.3-64.3L13.3,407.6c-17.8,17.8-17.8,46.6,0,64.3
			C31.1,489.7,59.9,489.7,77.6,471.9z"/>
	</g>
</g>
</svg>
